<?xml version="1.0" encoding="UTF-8"?>
<!DOCTYPE svg PUBLIC "-//W3C//DTD SVG 1.1//EN" "http://www.w3.org/Graphics/SVG/1.1/DTD/svg11.dtd">
<svg xmlns="http://www.w3.org/2000/svg" version="1.1" width="512px" height="512px" style="shape-rendering:geometricPrecision; text-rendering:geometricPrecision; image-rendering:optimizeQuality; fill-rule:evenodd; clip-rule:evenodd" xmlns:xlink="http://www.w3.org/1999/xlink">
<g><path style="opacity:0.98" fill="#182082" d="M 44.5,28.5 C 104.168,28.3333 163.834,28.5 223.5,29C 233.026,31.8596 239.193,38.0263 242,47.5C 242.667,114.167 242.667,180.833 242,247.5C 220.916,269.585 199.416,291.418 177.5,313C 133.167,313.667 88.8333,313.667 44.5,313C 37.8193,310.987 32.986,306.82 30,300.5C 28.3415,215.223 28.0081,129.89 29,44.5C 31.685,36.6498 36.8517,31.3165 44.5,28.5 Z"/></g>
<g><path style="opacity:0.987" fill="#d4d6e8" d="M 390.5,29.5 C 400.33,27.8292 404.163,31.8292 402,41.5C 400.833,42.6667 399.667,43.8333 398.5,45C 416.5,45.3333 434.5,45.6667 452.5,46C 468.112,48.9452 477.946,58.1119 482,73.5C 482.667,99.1667 482.667,124.833 482,150.5C 477.092,157.131 472.092,157.131 467,150.5C 466.667,126.167 466.333,101.833 466,77.5C 463.275,68.7727 457.442,63.606 448.5,62C 431.5,61.3333 414.5,61.3333 397.5,62C 402.081,65.4384 403.581,69.9384 402,75.5C 397.994,80.1659 393.494,80.6659 388.5,77C 383.366,70.8647 377.866,65.0313 372,59.5C 370.517,56.2976 370.183,52.9643 371,49.5C 377.703,42.9648 384.203,36.2982 390.5,29.5 Z"/></g>
<g><path style="opacity:1" fill="#d4e4fd" d="M 48.5,43.5 C 105.501,43.3333 162.501,43.5 219.5,44C 222.102,44.8834 224.269,46.3834 226,48.5C 226.5,111.499 226.667,174.499 226.5,237.5C 211.83,237.333 197.163,237.5 182.5,238C 173.93,240.904 168.43,246.737 166,255.5C 165.5,269.829 165.333,284.163 165.5,298.5C 126.499,298.667 87.4986,298.5 48.5,298C 46.6667,297.5 45.5,296.333 45,294.5C 44.3333,211.833 44.3333,129.167 45,46.5C 46.1451,45.3636 47.3117,44.3636 48.5,43.5 Z"/></g>
<g><path style="opacity:0.982" fill="#171f81" d="M 308.5,60.5 C 315.906,60.152 323.239,60.652 330.5,62C 333.893,65.7891 335.56,70.2891 335.5,75.5C 337.199,75.6204 338.865,75.9537 340.5,76.5C 343.301,74.9272 345.968,73.0938 348.5,71C 351.167,70.3333 353.833,70.3333 356.5,71C 361.634,75.1329 366.468,79.6329 371,84.5C 372.885,86.9141 373.552,89.5808 373,92.5C 371.254,95.92 369.087,99.0867 366.5,102C 367.627,103.753 368.627,105.587 369.5,107.5C 381.483,107.995 386.15,114.162 383.5,126C 386.255,138.047 381.588,143.881 369.5,143.5C 369.145,146.067 368.479,148.567 367.5,151C 370.489,154.817 372.822,158.983 374.5,163.5C 370.485,171.354 364.818,177.854 357.5,183C 354.833,183.667 352.167,183.667 349.5,183C 347.167,181.167 344.833,179.333 342.5,177.5C 340.677,178.747 338.677,179.414 336.5,179.5C 336.634,191.692 330.634,196.692 318.5,194.5C 305.878,196.542 299.878,191.209 300.5,178.5C 298.323,178.414 296.323,177.747 294.5,176.5C 292.007,178.58 289.341,180.414 286.5,182C 284.167,182.667 281.833,182.667 279.5,182C 274.032,177.533 268.865,172.7 264,167.5C 262.75,164.923 262.416,162.257 263,159.5C 265.213,156.905 267.047,154.072 268.5,151C 267.932,149.128 267.265,147.295 266.5,145.5C 253.993,145.489 248.993,139.322 251.5,127C 248.745,114.953 253.412,109.119 265.5,109.5C 265.724,107.213 266.391,105.047 267.5,103C 266.047,99.9279 264.213,97.0946 262,94.5C 261.416,91.7433 261.75,89.0766 263,86.5C 267.865,81.3 273.032,76.4666 278.5,72C 280.833,71.3333 283.167,71.3333 285.5,72C 288.341,73.5864 291.007,75.4197 293.5,77.5C 295.323,76.2528 297.323,75.5861 299.5,75.5C 298.76,67.9412 301.76,62.9412 308.5,60.5 Z"/></g>
<g><path style="opacity:1" fill="#182182" d="M 66.5,67.5 C 76.5056,67.3335 86.5056,67.5002 96.5,68C 103.616,71.5977 104.282,76.2643 98.5,82C 87.5,82.6667 76.5,82.6667 65.5,82C 60.0028,76.6829 60.3361,71.8495 66.5,67.5 Z"/></g>
<g><path style="opacity:1" fill="#162081" d="M 117.5,67.5 C 146.169,67.3334 174.835,67.5 203.5,68C 208.689,70.9132 209.856,75.0799 207,80.5C 206.25,81.1258 205.416,81.6258 204.5,82C 175.167,82.6667 145.833,82.6667 116.5,82C 111.003,76.6829 111.336,71.8495 117.5,67.5 Z"/></g>
<g><path style="opacity:1" fill="#ef857e" d="M 315.5,76.5 C 317.144,76.2865 318.644,76.6198 320,77.5C 320.012,81.2727 321.179,84.606 323.5,87.5C 330.299,90.6015 337.299,92.7682 344.5,94C 347.562,92.9392 350.062,91.1059 352,88.5C 355.232,91.1143 354.899,93.4476 351,95.5C 350.042,97.1992 349.542,99.0326 349.5,101C 352.052,106.62 354.219,112.454 356,118.5C 358.783,122.473 362.616,124.139 367.5,123.5C 367.5,125.167 367.5,126.833 367.5,128.5C 362.58,127.881 358.747,129.547 356,133.5C 353.96,139.952 352.127,146.452 350.5,153C 351.265,157.008 352.765,160.508 355,163.5C 354.333,164.167 353.667,164.833 353,165.5C 350.555,162.36 347.388,160.36 343.5,159.5C 338.275,161.946 332.942,164.113 327.5,166C 322.321,168.469 319.988,172.636 320.5,178.5C 319.167,178.5 317.833,178.5 316.5,178.5C 316.428,173.999 315.095,169.999 312.5,166.5C 306.425,164.866 300.758,162.366 295.5,159C 290.823,158.752 286.99,160.585 284,164.5C 282.978,163.646 282.145,162.646 281.5,161.5C 284.111,158.776 285.778,155.609 286.5,152C 283.96,146.387 281.793,140.554 280,134.5C 276.716,130.796 272.55,129.129 267.5,129.5C 267.5,127.833 267.5,126.167 267.5,124.5C 271.569,124.464 275.069,123.131 278,120.5C 279.524,115.118 281.858,110.118 285,105.5C 285.667,103.167 285.667,100.833 285,98.5C 283.081,96.3089 281.747,93.9755 281,91.5C 281.667,90.8333 282.333,90.1667 283,89.5C 285.99,93.4146 289.823,95.2479 294.5,95C 299.599,92.1167 304.933,89.7834 310.5,88C 313.669,84.8284 315.336,80.995 315.5,76.5 Z"/></g>
<g><path style="opacity:1" fill="#1a2081" d="M 311.5,101.5 C 325.87,99.7176 336.037,105.384 342,118.5C 345.265,134.812 339.098,145.646 323.5,151C 307.049,152.851 296.882,145.684 293,129.5C 292.582,115.762 298.748,106.428 311.5,101.5 Z"/></g>
<g><path style="opacity:1" fill="#151f81" d="M 66.5,105.5 C 94.502,105.333 122.502,105.5 150.5,106C 156.84,110.084 157.173,114.75 151.5,120C 122.833,120.667 94.1667,120.667 65.5,120C 60.0028,114.683 60.3361,109.85 66.5,105.5 Z"/></g>
<g><path style="opacity:1" fill="#162081" d="M 169.5,105.5 C 180.838,105.333 192.172,105.5 203.5,106C 208.143,108.072 209.643,111.572 208,116.5C 207.5,118.333 206.333,119.5 204.5,120C 192.833,120.667 181.167,120.667 169.5,120C 166.317,118.982 164.984,116.815 165.5,113.5C 165.667,112.167 165.833,110.833 166,109.5C 167.102,108.051 168.269,106.718 169.5,105.5 Z"/></g>
<g><path style="opacity:1" fill="#f6f6fa" d="M 314.5,116.5 C 327.08,117.166 330.414,122.999 324.5,134C 318.163,137.933 312.997,136.766 309,130.5C 307.268,124.314 309.101,119.647 314.5,116.5 Z"/></g>
<g><path style="opacity:1" fill="#161f81" d="M 66.5,144.5 C 80.8372,144.333 95.1705,144.5 109.5,145C 115.84,149.084 116.173,153.75 110.5,159C 95.5,159.667 80.5,159.667 65.5,159C 60.0028,153.683 60.3361,148.85 66.5,144.5 Z"/></g>
<g><path style="opacity:1" fill="#151f81" d="M 129.5,144.5 C 154.502,144.333 179.502,144.5 204.5,145C 209.689,147.913 210.856,152.08 208,157.5C 207.25,158.126 206.416,158.626 205.5,159C 180.167,159.667 154.833,159.667 129.5,159C 126.634,157.607 125.301,155.274 125.5,152C 125.43,148.634 126.763,146.134 129.5,144.5 Z"/></g>
<g><path style="opacity:1" fill="#172081" d="M 65.5,182.5 C 77.5046,182.333 89.5046,182.5 101.5,183C 106.038,184.713 107.538,187.88 106,192.5C 105.167,194.667 103.667,196.167 101.5,197C 89.5,197.667 77.5,197.667 65.5,197C 60.2018,192.092 60.2018,187.258 65.5,182.5 Z"/></g>
<g><path style="opacity:1" fill="#172081" d="M 122.5,182.5 C 135.837,182.333 149.171,182.5 162.5,183C 167.833,187.667 167.833,192.333 162.5,197C 149.167,197.667 135.833,197.667 122.5,197C 115.899,192.171 115.899,187.338 122.5,182.5 Z"/></g>
<g><path style="opacity:1" fill="#172081" d="M 184.5,182.5 C 191.175,182.334 197.842,182.5 204.5,183C 210.092,188.167 209.759,192.833 203.5,197C 197.167,197.667 190.833,197.667 184.5,197C 179.214,192.169 179.214,187.335 184.5,182.5 Z"/></g>
<g><path style="opacity:0.979" fill="#172081" d="M 285.5,198.5 C 345.834,198.333 406.168,198.5 466.5,199C 472.583,201.415 477.083,205.582 480,211.5C 481.657,280.109 481.99,348.776 481,417.5C 460.195,439.305 439.029,460.805 417.5,482C 373.521,481.71 329.521,481.377 285.5,481C 275.913,478.012 270.413,471.512 269,461.5C 268.333,380.5 268.333,299.5 269,218.5C 270.538,208.354 276.038,201.687 285.5,198.5 Z"/></g>
<g><path style="opacity:1" fill="#d4e4fd" d="M 289.5,213.5 C 346.834,213.333 404.168,213.5 461.5,214C 462.931,214.465 464.097,215.299 465,216.5C 465.5,279.832 465.667,343.166 465.5,406.5C 451.163,406.333 436.829,406.5 422.5,407C 413.667,409.167 408.167,414.667 406,423.5C 405.5,437.829 405.333,452.163 405.5,466.5C 366.832,466.667 328.165,466.5 289.5,466C 287.333,465.167 285.833,463.667 285,461.5C 284.333,380.167 284.333,298.833 285,217.5C 286.397,215.93 287.897,214.596 289.5,213.5 Z"/></g>
<g><path style="opacity:1" fill="#161f81" d="M 65.5,220.5 C 88.5024,220.333 111.502,220.5 134.5,221C 139.949,224.243 140.782,228.41 137,233.5C 135.933,234.191 134.766,234.691 133.5,235C 111.167,235.667 88.8333,235.667 66.5,235C 60.2917,230.58 59.9583,225.747 65.5,220.5 Z"/></g>
<g><path style="opacity:1" fill="#162081" d="M 153.5,220.5 C 170.503,220.333 187.503,220.5 204.5,221C 208.212,223.513 209.378,227.013 208,231.5C 206.786,233.049 205.286,234.215 203.5,235C 187.167,235.667 170.833,235.667 154.5,235C 148.292,230.58 147.958,225.747 153.5,220.5 Z"/></g>
<g><path style="opacity:1" fill="#172082" d="M 306.5,236.5 C 316.839,236.334 327.172,236.5 337.5,237C 342.143,239.072 343.643,242.572 342,247.5C 341.5,249.333 340.333,250.5 338.5,251C 327.833,251.667 317.167,251.667 306.5,251C 302.788,248.487 301.622,244.987 303,240.5C 304.376,239.295 305.542,237.962 306.5,236.5 Z"/></g>
<g><path style="opacity:1" fill="#162081" d="M 358.5,236.5 C 387.169,236.333 415.835,236.5 444.5,237C 450.729,241.171 451.062,245.837 445.5,251C 416.167,251.667 386.833,251.667 357.5,251C 351.954,245.676 352.288,240.843 358.5,236.5 Z"/></g>
<g><path style="opacity:1" fill="#8f93c2" d="M 185.5,253.5 C 195.325,252.342 205.325,252.175 215.5,253C 214.956,253.717 214.289,254.217 213.5,254.5C 204.348,253.506 195.015,253.173 185.5,253.5 Z"/></g>
<g><path style="opacity:1" fill="#fcfcfd" d="M 185.5,253.5 C 195.015,253.173 204.348,253.506 213.5,254.5C 202.895,264.604 192.395,274.937 182,285.5C 181.333,275.833 181.333,266.167 182,256.5C 182.72,254.944 183.887,253.944 185.5,253.5 Z"/></g>
<g><path style="opacity:1" fill="#182182" d="M 65.5,259.5 C 76.505,259.333 87.505,259.5 98.5,260C 103.436,263.958 103.769,268.291 99.5,273C 88.5728,274.597 77.5728,274.931 66.5,274C 60.2917,269.58 59.9583,264.747 65.5,259.5 Z"/></g>
<g><path style="opacity:1" fill="#1b2383" d="M 119.5,259.5 C 125.509,259.334 131.509,259.501 137.5,260C 143.282,265.736 142.616,270.402 135.5,274C 130.5,274.667 125.5,274.667 120.5,274C 114.205,269.663 113.872,264.829 119.5,259.5 Z"/></g>
<g><path style="opacity:1" fill="#161f81" d="M 306.5,275.5 C 334.502,275.333 362.502,275.5 390.5,276C 396.292,278.09 397.792,281.924 395,287.5C 394.097,288.701 392.931,289.535 391.5,290C 363.167,290.667 334.833,290.667 306.5,290C 302.788,287.487 301.622,283.987 303,279.5C 304.376,278.295 305.542,276.962 306.5,275.5 Z"/></g>
<g><path style="opacity:1" fill="#162081" d="M 410.5,275.5 C 421.838,275.333 433.172,275.5 444.5,276C 450.729,280.171 451.062,284.837 445.5,290C 433.5,290.667 421.5,290.667 409.5,290C 404.003,284.683 404.336,279.85 410.5,275.5 Z"/></g>
<g><path style="opacity:1" fill="#162081" d="M 306.5,313.5 C 321.17,313.333 335.837,313.5 350.5,314C 357.167,318.667 357.167,323.333 350.5,328C 335.833,328.667 321.167,328.667 306.5,328C 301.203,323.215 301.203,318.382 306.5,313.5 Z"/></g>
<g><path style="opacity:1" fill="#161f81" d="M 369.5,313.5 C 394.502,313.333 419.502,313.5 444.5,314C 449.626,316.553 450.793,320.386 448,325.5C 447.097,326.701 445.931,327.535 444.5,328C 419.167,328.667 393.833,328.667 368.5,328C 363.003,322.683 363.336,317.85 369.5,313.5 Z"/></g>
<g><path style="opacity:0.981" fill="#171f80" d="M 179.5,319.5 C 188.173,319.334 196.84,319.5 205.5,320C 208.963,323.769 210.63,328.269 210.5,333.5C 212.677,333.586 214.677,334.253 216.5,335.5C 219.304,333.862 221.971,332.029 224.5,330C 226.833,329.333 229.167,329.333 231.5,330C 237.291,334.122 242.791,338.622 248,343.5C 249.25,346.077 249.584,348.743 249,351.5C 240.746,361.071 242.913,366.571 255.5,368C 256.333,368.833 257.167,369.667 258,370.5C 259.107,374.888 259.607,379.388 259.5,384C 262.15,395.838 257.483,402.005 245.5,402.5C 244.735,404.295 244.068,406.128 243.5,408C 244.953,411.072 246.787,413.905 249,416.5C 249.584,419.257 249.25,421.923 248,424.5C 243.135,429.7 237.968,434.533 232.5,439C 230.167,439.667 227.833,439.667 225.5,439C 222.659,437.414 219.993,435.58 217.5,433.5C 215.677,434.747 213.677,435.414 211.5,435.5C 212.603,448.731 206.603,454.397 193.5,452.5C 180.889,454.554 174.889,449.22 175.5,436.5C 173.323,436.414 171.323,435.747 169.5,434.5C 167.167,436.333 164.833,438.167 162.5,440C 159.833,440.667 157.167,440.667 154.5,440C 149.366,435.867 144.532,431.367 140,426.5C 138.115,424.086 137.448,421.419 138,418.5C 139.746,415.08 141.913,411.913 144.5,409C 143.415,406.828 142.081,404.828 140.5,403C 128.447,402.931 123.781,396.931 126.5,385C 123.85,373.162 128.517,366.995 140.5,366.5C 141.265,364.705 141.932,362.872 142.5,361C 141.047,357.928 139.213,355.095 137,352.5C 136.257,349.217 136.924,346.217 139,343.5C 143.532,338.633 148.366,334.133 153.5,330C 155.833,329.333 158.167,329.333 160.5,330C 163.341,331.586 166.007,333.42 168.5,335.5C 170.323,334.253 172.323,333.586 174.5,333.5C 174.489,328.144 176.156,323.477 179.5,319.5 Z"/></g>
<g><path style="opacity:1" fill="#f8bf11" d="M 190.5,334.5 C 192.144,334.286 193.644,334.62 195,335.5C 195.152,339.634 196.652,343.134 199.5,346C 205.27,347.367 210.604,349.7 215.5,353C 216.833,353.667 218.167,353.667 219.5,353C 222.613,351.146 225.613,349.48 228.5,348C 229.167,348.667 229.833,349.333 230.5,350C 227.914,352.345 226.247,355.178 225.5,358.5C 227.66,364.156 229.827,369.823 232,375.5C 234.462,379.926 238.296,381.926 243.5,381.5C 243.5,383.167 243.5,384.833 243.5,386.5C 238.799,386.293 234.965,387.96 232,391.5C 230.249,397.499 228.082,403.333 225.5,409C 226.679,412.834 228.179,416.334 230,419.5C 229.333,420.167 228.667,420.833 228,421.5C 225.555,418.36 222.388,416.36 218.5,415.5C 213.532,418.481 208.199,420.648 202.5,422C 200,423.167 198.167,425 197,427.5C 196.498,430.513 195.998,433.513 195.5,436.5C 194.167,436.5 192.833,436.5 191.5,436.5C 191.658,431.511 189.991,427.344 186.5,424C 180.678,422.755 175.345,420.422 170.5,417C 165.864,416.927 162.031,418.761 159,422.5C 157.978,421.646 157.145,420.646 156.5,419.5C 159.111,416.776 160.778,413.609 161.5,410C 158.948,404.38 156.781,398.546 155,392.5C 151.656,389.009 147.489,387.342 142.5,387.5C 142.5,385.833 142.5,384.167 142.5,382.5C 146.569,382.464 150.069,381.131 153,378.5C 154.524,373.118 156.858,368.118 160,363.5C 160.667,361.167 160.667,358.833 160,356.5C 158.081,354.309 156.747,351.976 156,349.5C 156.667,348.833 157.333,348.167 158,347.5C 160.942,351.389 164.775,353.222 169.5,353C 174.599,350.117 179.933,347.783 185.5,346C 188.669,342.828 190.336,338.995 190.5,334.5 Z"/></g>
<g><path style="opacity:1" fill="#172081" d="M 306.5,351.5 C 318.505,351.333 330.505,351.5 342.5,352C 343.931,352.465 345.097,353.299 346,354.5C 346.667,357.167 346.667,359.833 346,362.5C 345.5,364.333 344.333,365.5 342.5,366C 330.5,366.667 318.5,366.667 306.5,366C 301.235,361.076 301.235,356.242 306.5,351.5 Z"/></g>
<g><path style="opacity:1" fill="#162081" d="M 362.5,351.5 C 375.837,351.333 389.171,351.5 402.5,352C 407.038,353.713 408.538,356.88 407,361.5C 406.167,363.667 404.667,365.167 402.5,366C 389.167,366.667 375.833,366.667 362.5,366C 357.202,361.092 357.202,356.258 362.5,351.5 Z"/></g>
<g><path style="opacity:1" fill="#182182" d="M 425.5,351.5 C 431.842,351.334 438.175,351.5 444.5,352C 449.038,353.713 450.538,356.88 449,361.5C 448.167,363.667 446.667,365.167 444.5,366C 438.167,366.667 431.833,366.667 425.5,366C 422.484,364.471 421.151,361.971 421.5,358.5C 421.197,355.156 422.53,352.822 425.5,351.5 Z"/></g>
<g><path style="opacity:0.987" fill="#d4d6e8" d="M 34.5,355.5 C 38.5849,355.459 41.7515,357.125 44,360.5C 44.3333,384.833 44.6667,409.167 45,433.5C 47.7249,442.227 53.5582,447.394 62.5,449C 79.5,449.667 96.5,449.667 113.5,449C 108.919,445.562 107.419,441.062 109,435.5C 113.006,430.834 117.506,430.334 122.5,434C 127.634,440.135 133.134,445.969 139,451.5C 140.483,454.702 140.817,458.036 140,461.5C 133.5,468 127,474.5 120.5,481C 110.667,483.167 106.833,479.333 109,469.5C 110.167,468.333 111.333,467.167 112.5,466C 94.5,465.667 76.5,465.333 58.5,465C 42.8875,462.055 33.0542,452.888 29,437.5C 28.3333,411.833 28.3333,386.167 29,360.5C 30.1065,357.887 31.9399,356.22 34.5,355.5 Z"/></g>
<g><path style="opacity:1" fill="#192080" d="M 187.5,359.5 C 201.345,358.336 211.179,364.003 217,376.5C 220.265,392.812 214.098,403.646 198.5,409C 183.581,410.797 173.748,404.63 169,390.5C 166.972,375.216 173.139,364.882 187.5,359.5 Z"/></g>
<g><path style="opacity:1" fill="#f6f6fa" d="M 190.5,374.5 C 202.393,375.787 205.393,381.62 199.5,392C 193.058,396.124 187.892,394.957 184,388.5C 182.17,381.832 184.337,377.165 190.5,374.5 Z"/></g>
<g><path style="opacity:1" fill="#161f81" d="M 306.5,390.5 C 329.502,390.333 352.502,390.5 375.5,391C 379.212,393.513 380.378,397.013 379,401.5C 377.786,403.049 376.286,404.215 374.5,405C 351.833,405.667 329.167,405.667 306.5,405C 301.235,400.076 301.235,395.242 306.5,390.5 Z"/></g>
<g><path style="opacity:1" fill="#162081" d="M 393.5,390.5 C 410.503,390.333 427.503,390.5 444.5,391C 449.986,396.081 449.653,400.748 443.5,405C 426.833,405.667 410.167,405.667 393.5,405C 388.235,400.076 388.235,395.242 393.5,390.5 Z"/></g>
<g><path style="opacity:1" fill="#9ca0ca" d="M 425.5,422.5 C 435.325,421.342 445.325,421.175 455.5,422C 454.956,422.717 454.289,423.217 453.5,423.5C 444.348,422.506 435.015,422.173 425.5,422.5 Z"/></g>
<g><path style="opacity:1" fill="#f3f3f8" d="M 425.5,422.5 C 435.015,422.173 444.348,422.506 453.5,423.5C 442.869,434.632 432.035,445.632 421,456.5C 420.333,446.5 420.333,436.5 421,426.5C 421.748,424.249 423.248,422.916 425.5,422.5 Z"/></g>
<g><path style="opacity:1" fill="#172082" d="M 306.5,428.5 C 317.172,428.333 327.839,428.5 338.5,429C 339.931,429.465 341.097,430.299 342,431.5C 343.724,436.731 342.224,440.565 337.5,443C 327.167,443.667 316.833,443.667 306.5,443C 301.235,438.076 301.235,433.242 306.5,428.5 Z"/></g>
<g><path style="opacity:1" fill="#182182" d="M 359.5,428.5 C 365.952,428.084 372.285,428.584 378.5,430C 381.916,435.464 380.916,439.797 375.5,443C 369.719,443.903 364.053,443.57 358.5,442C 354.295,437.089 354.629,432.589 359.5,428.5 Z"/></g>
</svg>
